<?xml version="1.0" encoding="utf-8"?>
<!-- Generator: Adobe Illustrator 27.9.0, SVG Export Plug-In . SVG Version: 6.00 Build 0)  -->
<svg version="1.1" id="Layer_1" xmlns="http://www.w3.org/2000/svg" x="0px" y="0px"
	 viewBox="0 0 952.1 952" style="enable-background:new 0 0 952.1 952;" xml:space="preserve">
<style type="text/css">
	.st0{fill:#DF7570;stroke:#FFFFFF;stroke-width:30;stroke-miterlimit:10;}
	.st1{fill:#BA9BC9;stroke:#FFFFFF;stroke-width:30;stroke-miterlimit:10;}
	.st2{fill:#C5DEA7;stroke:#FFFFFF;stroke-width:30;stroke-miterlimit:10;}
	.st3{fill:#C5DEA7;}
	.st4{fill:#FFFFFF;}
	.st5{fill:#29ABE2;}
	.st6{fill:#FDF698;stroke:#FFFFFF;stroke-width:30;stroke-linecap:square;stroke-linejoin:round;stroke-miterlimit:10;}
</style>
<path class="st0" d="M694.2,604.3c0,0,34.7,50.6-21.1,71.9s-60.7-45.9-60.7-45.9L694.2,604.3z"/>
<path class="st1" d="M558.6,363.2c0,0-17.7-58.7,42-62.1c59.7-3.4,43.9,62.1,43.9,62.1H558.6L558.6,363.2z"/>
<g>
	<path class="st2" d="M253.9,525.9c0,0,64.8,83.6,8.5,145"/>
	<g>
		<path class="st3" d="M262.5,716.2c-11.3,0-22.2-4.2-30.6-11.9c-18.4-16.8-19.6-45.5-2.8-63.9c15.4-16.8,11.6-36.6,7.5-50
			c-6.3-20.5-18.5-36.8-18.6-37l12-9.1l-9.1-11.8l59.6-46.2l9.2,11.9c2.2,2.8,21.4,28.2,32.7,63.4c7.3,22.7,9.8,44.8,7.5,65.8
			c-3.1,28-14.6,52.9-34,74.1C287.3,710.8,275.1,716.2,262.5,716.2L262.5,716.2L262.5,716.2z"/>
		<path class="st4" d="M277.8,507.4c2,2.6,19.8,26.1,30.3,58.8c6.6,20.7,8.9,40.7,6.8,59.6c-2.8,24.7-12.9,46.8-30.2,65.6
			c-6,6.5-14.1,9.8-22.3,9.8l0,0c-7.3,0-14.6-2.6-20.4-7.9c-12.3-11.3-13.1-30.4-1.9-42.7c22.9-25,13.8-54.8,10.8-64.6
			c-7.2-23.4-20.8-41.5-21-41.6l0.1,0.1L277.8,507.4 M283.1,465.3l-23.7,18.4l-47.8,37l18.3,23.6l-23.8,18.2l-0.1-0.1
			c0.1,0.1,10.8,14.6,16.3,32.4c3.7,12,5.7,24.6-4.2,35.5c-22.4,24.5-20.8,62.6,3.7,85.1c11.1,10.2,25.6,15.8,40.7,15.8
			c16.8,0,33-7.1,44.4-19.5c21.6-23.6,34.4-51.4,37.9-82.6c2.6-23.1-0.1-47.3-8.1-72.1c-11.8-36.8-31.3-63.1-35.1-68L283.1,465.3
			L283.1,465.3L283.1,465.3z"/>
	</g>
</g>
<g>
	<path class="st2" d="M379.2,424.8c0,0,13.3-105,96.5-108.6"/>
	<g>
		<path class="st3" d="M332.5,434l1.9-14.9c0.4-3.5,4.8-35.1,21.7-67.9c10.9-21.2,24.8-38.6,41.3-51.8c22-17.6,47.7-27.1,76.5-28.4
			c0.7,0,1.3,0,2,0c12.1,0,23.4,4.7,32,13.2c8,8,12.7,18.7,13.2,30c0.5,12.1-3.7,23.6-11.8,32.5s-19.3,14.1-31.4,14.6
			c-22.7,1-34.1,17.6-40.7,30.1c-10.1,19-13,39.1-13,39.3l-14.9-2l-1.9,14.7L332.5,434L332.5,434z"/>
		<path class="st4" d="M475.8,286c8.3,0,15.9,3.4,21.4,8.9c5.2,5.2,8.5,12.2,8.8,20c0.7,16.7-12.2,30.8-28.9,31.5
			c-33.9,1.5-48.5,29-53.3,38c-11.5,21.7-14.6,44-14.6,44.3v-0.1l-59.9-7.6c0.4-3.2,4.4-32.4,20.1-63c9.9-19.3,22.5-35.1,37.3-47
			c19.4-15.5,42.2-24,67.8-25.1C474.9,286,475.3,286,475.8,286 M475.8,256L475.8,256c-0.9,0-1.8,0-2.6,0.1
			c-32,1.4-60.7,12-85.2,31.6c-18.1,14.5-33.4,33.6-45.2,56.7c-17.7,34.4-22.5,66.8-23.2,72.9l-3.8,29.8l29.8,3.8l60,7.6l3.7-29.6
			l29.7,4l0,0.2c0-0.2,2.7-17.9,11.4-34.4c5.9-11.1,13.3-21.5,28.1-22.1c33.2-1.4,59-29.6,57.6-62.8c-0.7-15.1-6.9-29.3-17.6-40
			C507,262.3,491.9,256,475.8,256L475.8,256L475.8,256z"/>
	</g>
</g>
<rect x="426.8" y="486.7" class="st4" width="29.4" height="20.7"/>
<g>
	<path class="st5" d="M600.5,633.8c-81.8,0-138.9-56.1-138.9-136.5s57.1-136.5,138.9-136.5S739.4,417,739.4,497.3
		S682.3,633.8,600.5,633.8L600.5,633.8z M600.5,449.7c-26.2,0-43.1,18.7-43.1,47.6c0,28.9,16.9,47.7,43.1,47.7s43.1-18.7,43.1-47.6
		S626.7,449.7,600.5,449.7L600.5,449.7z"/>
	<path class="st4" d="M600.5,375.9c73.5,0,123.9,49.4,123.9,121.5S674,618.8,600.5,618.8s-123.9-49.3-123.9-121.5
		S527,375.9,600.5,375.9 M600.5,560c34.3,0,58.1-25.5,58.1-62.6s-23.8-62.6-58.1-62.6s-58.1,25.5-58.1,62.6S566.2,560,600.5,560
		 M600.5,345.9c-21.7,0-42.3,3.6-61.1,10.8c-18.9,7.2-35.5,17.8-49.4,31.5c-14,13.7-24.8,30.1-32.2,48.7
		c-7.4,18.6-11.1,39-11.1,60.5s3.8,41.9,11.1,60.5c7.4,18.6,18.2,35,32.2,48.7c13.9,13.7,30.6,24.2,49.4,31.5
		c18.8,7.2,39.3,10.8,61.1,10.8s42.3-3.6,61.1-10.8c18.9-7.2,35.5-17.8,49.4-31.5c14-13.7,24.8-30.1,32.2-48.7
		c7.4-18.6,11.2-39,11.2-60.5s-3.8-41.9-11.2-60.5c-7.4-18.6-18.2-35-32.2-48.7c-13.9-13.7-30.6-24.2-49.4-31.5
		C642.8,349.5,622.3,345.9,600.5,345.9L600.5,345.9z M600.5,530c-8.4,0-15.1-2.6-19.9-7.8c-5.3-5.7-8.2-14.5-8.2-24.8
		s2.9-19.1,8.2-24.8c4.8-5.2,11.5-7.8,19.9-7.8s15.1,2.6,19.9,7.8c5.3,5.7,8.2,14.5,8.2,24.8s-2.9,19.1-8.2,24.8
		C615.7,527.4,608.9,530,600.5,530L600.5,530L600.5,530z"/>
</g>
<g>
	<circle class="st3" cx="377.2" cy="308" r="54.8"/>
	<path class="st4" d="M377.2,268.2c22,0,39.8,17.8,39.8,39.8s-17.8,39.8-39.8,39.8S337.4,330,337.4,308S355.3,268.2,377.2,268.2
		 M377.2,238.2c-38.5,0-69.8,31.3-69.8,69.8s31.3,69.8,69.8,69.8S447,346.5,447,308S415.7,238.2,377.2,238.2L377.2,238.2z"/>
</g>
<path class="st2" d="M674.6,407.5c0,0,38.2-48,75-0.8c36.7,47.1-26.1,71.4-26.1,71.4c-8-5.2-20.8-15-31.9-31.3
	C681.1,431.4,676.6,416.7,674.6,407.5L674.6,407.5z"/>
<path class="st6" d="M518.6,611.9c0,0-34.6,50.7-74.7,6.4s20.8-73.2,20.8-73.2c7.6,3.4,22.3,11.2,35.1,27.1
	C512.4,587.9,516.9,603.8,518.6,611.9L518.6,611.9z"/>
<g>
	<path class="st3" d="M346.6,633.8C265,633.8,208,577.7,208,497.3s57-136.5,138.6-136.5c44.8,0,81.7,15.8,106.7,45.6l0.2,0.2
		l0.2,0.2c7.1,9.1,10.5,19,10.5,30.2c0,26.3-19.8,46.1-46.1,46.1c-15.3,0-28.8-6.3-38.2-17.8l-0.2-0.2l-0.1-0.2
		c-8-10.5-18.4-15.5-32.5-15.5c-26.2,0-43.1,18.7-43.1,47.6s16.9,47.6,43.1,47.6c15.3,0,26.3-5.5,34.7-17.2
		c9-12.7,23.2-19.9,39.2-19.9c26.7,0,46.1,19.4,46.1,46.2c0,10.7-2.8,20.1-8.5,28.6l-0.2,0.3C435.7,614.8,394,633.8,346.6,633.8
		L346.6,633.8z"/>
	<path class="st4" d="M346.6,375.9c40.6,0,73.5,14.4,95.2,40.2c4.9,6.3,7.4,13,7.4,21c0,18.2-13,31.1-31.1,31.1
		c-11.2,0-20.3-4.5-26.6-12.2c-10.1-13.3-24.5-21.4-44.5-21.4c-34.3,0-58.1,25.5-58.1,62.6s23.8,62.6,58.1,62.6
		c21.4,0,36.4-8.8,46.9-23.5c6-8.4,15.4-13.7,27-13.7c18.9,0,31.1,13,31.1,31.2c0,7.3-1.8,14-6,20.3c-18.5,26.2-54.2,44.5-99.4,44.5
		c-73.1,0-123.6-49.3-123.6-121.5S273.4,375.9,346.6,375.9 M346.6,345.9c-21.7,0-42.2,3.6-60.9,10.8c-18.8,7.2-35.4,17.8-49.3,31.5
		c-14,13.7-24.8,30.1-32.2,48.7s-11.1,39-11.1,60.5c0,21.5,3.8,41.9,11.1,60.5c7.4,18.6,18.2,35,32.2,48.7
		c13.9,13.7,30.5,24.2,49.3,31.5c18.7,7.2,39.2,10.8,60.9,10.8c26.3,0,50.6-5.1,72.3-15.2c21.4-9.9,39.2-24.4,51.6-42l0.2-0.3
		l0.2-0.3c7.3-10.9,11-23.4,11-36.9c0-16.8-6.1-32.2-17.1-43.4c-7.3-7.4-16.5-12.7-26.7-15.5c24.4-8,41-30.3,41-58
		c0-14.5-4.6-27.8-13.7-39.4l-0.3-0.4l-0.4-0.4c-13.9-16.6-31.3-29.5-51.8-38.2C393.1,350.2,370.7,345.9,346.6,345.9L346.6,345.9z
		 M346.9,530c-8.4,0-15.1-2.6-19.9-7.8c-5.3-5.7-8.2-14.5-8.2-24.8s2.9-19.1,8.2-24.8c4.8-5.2,11.5-7.8,19.9-7.8
		c9.5,0,15.4,2.8,20.6,9.5l0.3,0.4l0.3,0.4c8.5,10.5,19.7,17.6,32.5,21c-12.5,4.1-23.4,12-31.2,23.1
		C363.8,526.8,357.3,530,346.9,530L346.9,530L346.9,530z"/>
</g>
</svg>
